<svg width="16" height="16" viewBox="0 0 16 16" fill="none" xmlns="http://www.w3.org/2000/svg">
<path fill-rule="evenodd" clip-rule="evenodd" d="M0.234375 8.03548V15.6735H7.8724H15.5104V8.03548V0.397461H7.8724H0.234375V8.03548ZM10.4138 7.98673C11.4341 10.3106 12.2764 12.2303 12.2858 12.2526C12.299 12.2845 12.1349 12.2931 11.5268 12.2926L10.751 12.2919L9.31466 8.92049C8.52469 7.0662 7.8685 5.53769 7.85647 5.52378C7.84446 5.5099 7.18203 7.02733 6.38444 8.89588L4.93423 12.2933H4.18881H3.44339L3.48784 12.1876C3.60178 11.9169 7.14602 3.85306 7.17353 3.80197C7.20228 3.7486 7.25991 3.7446 7.88182 3.75266L8.5588 3.76144L10.4138 7.98673Z" fill="#D0FFD6"/>
</svg>
