<svg width="24" height="24" viewBox="0 0 24 24" fill="none" xmlns="http://www.w3.org/2000/svg">
<g clip-path="url(#clip0_385_8010)">
<path d="M16.7394 2.52066C17.9954 2.52441 19.1988 3.025 20.0869 3.9131C20.975 4.80119 21.4756 6.00463 21.4793 7.26059V16.7394C21.4756 17.9954 20.975 19.1988 20.0869 20.0869C19.1988 20.975 17.9954 21.4756 16.7394 21.4793H7.26059C6.00463 21.4756 4.80119 20.975 3.9131 20.0869C3.025 19.1988 2.52441 17.9954 2.52066 16.7394V7.26059C2.52441 6.00463 3.025 4.80119 3.9131 3.9131C4.80119 3.025 6.00463 2.52441 7.26059 2.52066H16.7394ZM16.7394 0.625H7.26059C3.61094 0.625 0.625 3.61094 0.625 7.26059V16.7394C0.625 20.3891 3.61094 23.375 7.26059 23.375H16.7394C20.3891 23.375 23.375 20.3891 23.375 16.7394V7.26059C23.375 3.61094 20.3891 0.625 16.7394 0.625Z" fill="white" fill-opacity="0.6"/>
<path d="M18.1613 7.26074C17.8801 7.26074 17.6052 7.17735 17.3713 7.02111C17.1375 6.86488 16.9553 6.64281 16.8476 6.383C16.74 6.12318 16.7119 5.83729 16.7667 5.56147C16.8216 5.28566 16.957 5.0323 17.1559 4.83345C17.3547 4.6346 17.6081 4.49918 17.8839 4.44431C18.1597 4.38945 18.4456 4.41761 18.7054 4.52523C18.9652 4.63284 19.1873 4.81509 19.3435 5.04892C19.4998 5.28274 19.5832 5.55765 19.5832 5.83887C19.5836 6.0257 19.5471 6.21078 19.4757 6.38347C19.4044 6.55616 19.2997 6.71307 19.1676 6.84518C19.0355 6.97729 18.8786 7.08201 18.7059 7.15333C18.5332 7.22464 18.3481 7.26114 18.1613 7.26074ZM12 8.20832C12.75 8.20832 13.4831 8.43071 14.1066 8.84736C14.7302 9.26401 15.2162 9.85622 15.5032 10.5491C15.7902 11.242 15.8653 12.0044 15.719 12.7399C15.5727 13.4755 15.2115 14.1511 14.6812 14.6814C14.1509 15.2117 13.4753 15.5728 12.7398 15.7191C12.0042 15.8654 11.2418 15.7904 10.5489 15.5034C9.85606 15.2164 9.26386 14.7304 8.84721 14.1068C8.43055 13.4832 8.20817 12.7501 8.20817 12.0002C8.20924 10.9948 8.60908 10.031 9.31996 9.32011C10.0308 8.60924 10.9947 8.2094 12 8.20832ZM12 6.31266C10.8751 6.31266 9.7755 6.64622 8.8402 7.27117C7.90489 7.89612 7.17591 8.78439 6.74544 9.82364C6.31496 10.8629 6.20233 12.0065 6.42179 13.1097C6.64124 14.213 7.18292 15.2264 7.97833 16.0218C8.77374 16.8172 9.78716 17.3589 10.8904 17.5784C11.9937 17.7978 13.1373 17.6852 14.1765 17.2547C15.2158 16.8242 16.104 16.0953 16.729 15.16C17.3539 14.2247 17.6875 13.125 17.6875 12.0002C17.6875 10.4917 17.0883 9.0451 16.0217 7.97849C14.9551 6.91187 13.5084 6.31266 12 6.31266Z" fill="white" fill-opacity="0.6"/>
</g>
<defs>
<clipPath id="clip0_385_8010">
<rect width="24" height="24" fill="white"/>
</clipPath>
</defs>
</svg>
