<svg width="24" height="24" viewBox="0 0 24 24" fill="none" xmlns="http://www.w3.org/2000/svg">
<path d="M6.29657 22H2V8.64056H6.29657V22ZM4.2969 6.60936H4.26611C2.89105 6.60936 2.00067 5.58573 2.00067 4.30434C2.00067 2.99953 2.91448 2 4.32033 2C5.72619 2 6.58644 2.99217 6.61724 4.30434C6.61657 5.58573 5.72619 6.60936 4.2969 6.60936ZM21.9993 22H17.7028V14.6953C17.7028 12.9453 17.0775 11.7496 15.523 11.7496C14.3354 11.7496 13.6325 12.553 13.3198 13.3356C13.2027 13.6168 13.1712 13.9997 13.1712 14.3907V22H8.87464V8.64056H13.1712V10.4997C13.7965 9.60929 14.7732 8.32791 17.046 8.32791C19.8664 8.32791 22 10.1871 22 14.1952L21.9993 22Z" fill="white" fill-opacity="0.6"/>
</svg>
